<?xml version="1.0" standalone="no"?><!DOCTYPE svg PUBLIC "-//W3C//DTD SVG 1.1//EN" "http://www.w3.org/Graphics/SVG/1.1/DTD/svg11.dtd"><svg t="1639644186942" class="icon" viewBox="0 0 1024 1024" version="1.1" xmlns="http://www.w3.org/2000/svg" p-id="3432" xmlns:xlink="http://www.w3.org/1999/xlink" width="200" height="200"><defs><style type="text/css"></style></defs><path d="M967.68 676.352H56.32a38.4 38.4 0 0 0-38.4 40.448v192a38.4 38.4 0 0 0 38.4 38.4h911.36a38.4 38.4 0 0 0 38.4-38.4V716.8a38.4 38.4 0 0 0-38.4-40.448zM929.28 870.4H94.72v-117.248h834.56V870.4zM56.32 646.656h697.856a38.4 38.4 0 0 0 38.4-38.4V416.256a38.4 38.4 0 0 0-38.4-38.4H56.32a38.4 38.4 0 0 0-38.4 38.4v192a38.4 38.4 0 0 0 38.4 38.4z m38.4-192H716.8v115.2H94.72V454.656zM56.32 347.648h349.184A38.4 38.4 0 0 0 443.904 307.2V117.248a38.4 38.4 0 0 0-38.4-38.4H56.32a38.4 38.4 0 0 0-38.4 38.4V307.2a38.4 38.4 0 0 0 38.4 40.448zM94.72 153.6h272.384v117.248H94.72V153.6z" fill="#1F88D9" p-id="3433"></path></svg>