<?xml version="1.0" standalone="no"?><!DOCTYPE svg PUBLIC "-//W3C//DTD SVG 1.1//EN" "http://www.w3.org/Graphics/SVG/1.1/DTD/svg11.dtd"><svg t="1645901874066" class="icon" viewBox="0 0 1024 1024" version="1.1" xmlns="http://www.w3.org/2000/svg" p-id="2689" xmlns:xlink="http://www.w3.org/1999/xlink" width="200" height="200"><defs><style type="text/css"></style></defs><path d="M118.98162 554.854955l219.505904-27.542232c20.086437-2.520398 36.71513-16.498733 36.71513-36.720246v-40.109429c0-15.143878 12.401423-27.530975 27.535068-27.530975l29.956206-0.002047c15.166391 0 27.530975 12.39119 27.530975 27.537115v29.711636c0 15.146948 12.405516 27.544278 27.576 27.544278l48.426846-0.001024c15.166391 0 27.535068-12.37584 27.535068-27.542231v-29.715729c0-15.160251 12.364584-27.530975 27.534045-27.530975l29.953136-0.002047c15.132622 0 27.534045 12.409609 27.534045 27.537115l0.004093 40.101243c0 20.173418 16.662462 34.215198 36.707967 36.72434l219.513067 27.542231c23.045833 2.876508 42.551033 17.146484 45.548291 39.989703l33.028165 254.453787c1.725291 13.42575-1.998513 25.93769-11.026102 36.205525-9.022473 10.27602-20.92964 15.608458-34.483304 15.608458H85.9115c-13.55264 0-25.422968-5.329368-34.446464-15.608458-9.060335-10.27602-12.825071-22.636511-11.059872-36.205525l33.025095-254.453787c2.997258-23.016157 22.505528-37.098869 45.547268-39.989703h0.004093v-0.001023z m281.377943 30.486277l-0.004093 0.004093c-9.485006 0-17.244722 7.743343-17.244721 17.221186v28.126538c0 9.47375 7.759715 17.221186 17.247791 17.221185l28.109142 0.004094c9.483983 0 17.202766-7.755622 17.202766-17.229372v-28.122445c0-9.477843-7.71469-17.225279-17.202766-17.225279h-28.108119z m195.164569 195.177871h-0.00307c-9.485006 0-17.240628 7.747436-17.240629 17.217092l-0.004093 28.134725c0 9.47375 7.759715 17.221186 17.246768 17.221185l28.109142 0.004094c9.485006 0 17.244722-7.755622 17.244722-17.229372v-28.126538c0-9.47375-7.759715-17.221186-17.244722-17.221186h-28.108118z m-97.582284 0h-0.00307c-9.486029 0-17.244722 7.747436-17.244722 17.217092v28.134725c0 9.47375 7.762785 17.221186 17.246768 17.221185l28.109142 0.004094c9.485006 0 17.243698-7.755622 17.243698-17.229372v-28.126538c0-9.47375-7.758692-17.221186-17.243698-17.221186h-28.108118z m-97.582285 0h-0.004093c-9.485006 0-17.244722 7.747436-17.244721 17.217092v28.134725c0 9.47375 7.759715 17.221186 17.247791 17.221185l28.109142 0.004094c9.483983 0 17.202766-7.755622 17.202766-17.229372v-28.126538c0-9.47375-7.71469-17.221186-17.202766-17.221186h-28.108119z m195.164569-97.591494h-0.00307c-9.485006 0-17.240628 7.747436-17.240629 17.225279l-0.004093 28.126538c0 9.477843 7.759715 17.225279 17.246768 17.225279h28.109142c9.485006 0 17.244722-7.747436 17.244722-17.229372v-28.122445c0-9.47375-7.759715-17.225279-17.244722-17.225279h-28.108118z m-97.582284 0h-0.00307c-9.486029 0-17.244722 7.747436-17.244722 17.225279v28.126538c0 9.477843 7.762785 17.225279 17.246768 17.225279h28.109142c9.485006 0 17.243698-7.747436 17.243698-17.229372v-28.122445c0-9.47375-7.758692-17.225279-17.243698-17.225279h-28.108118z m-97.582285 0h-0.004093c-9.485006 0-17.244722 7.747436-17.244721 17.225279v28.126538c0 9.477843 7.759715 17.225279 17.247791 17.225279h28.109142c9.483983 0 17.202766-7.747436 17.202766-17.229372v-28.122445c0-9.47375-7.71469-17.225279-17.202766-17.225279h-28.108119z m195.164569-97.586377l-0.00307 0.004093c-9.485006 0-17.240628 7.743343-17.240629 17.221186l-0.004093 28.126538c0 9.47375 7.759715 17.221186 17.246768 17.221185l28.109142 0.004094c9.485006 0 17.244722-7.755622 17.244722-17.229372v-28.122445c0-9.477843-7.759715-17.225279-17.244722-17.225279h-28.108118z m-97.582284 0l-0.00307 0.004093c-9.486029 0-17.244722 7.743343-17.244722 17.221186v28.126538c0 9.47375 7.762785 17.221186 17.246768 17.221185l28.109142 0.004094c9.485006 0 17.243698-7.755622 17.243698-17.229372v-28.122445c0-9.477843-7.758692-17.225279-17.243698-17.225279h-28.108118z" fill="#23A3C5" p-id="2690"></path><path d="M511.99386 170.805836c145.279514 0 270.74172 33.186777 368.707743 99.546005 30.494464 20.665627 70.281553 62.297734 58.490019 107.475588-1.726314 6.589055-2.652404 10.510357-3.649103 14.62097-6.375185 27.13598-14.326258 60.826222-39.823928 55.840684l-138.364024-28.536882c-31.836016-6.56245-22.160675-52.389079-20.239933-81.052853 1.233082-18.642555 4.5711-23.507343 6.449886-34.739129 5.378487-32.212591-2.534724-33.608378-48.194556-41.260647-94.699636-15.885774-272.048479-15.883727-366.749138 0-45.660855 7.651245-53.611928 9.048055-48.199672 41.260647 1.886973 11.21746 5.223968 16.066899 6.453979 34.739129 1.920742 28.659679 11.559244 74.493472-20.239933 81.052853l-138.360954 28.536882c-25.464924 5.248527-33.451813-28.694472-39.828021-55.821241-0.997722-4.102426-1.919719-8.091266-3.64808-14.639389-11.788464-45.204461 27.957693-86.794612 58.485926-107.475589 97.96807-66.362298 223.431299-99.543958 368.709789-99.543958v-0.00307zM331.154527 310.72426c95.662565-16.049502 265.942423-15.740464 361.604989 0.317224-2.956326 13.780837-3.229548 24.271751-4.497422 38.204037-4.256945 47.266419-9.214854 103.253436 59.911388 117.511132l138.367094 28.537907c70.697014 13.810513 84.524923-44.780813 95.658473-91.99095 1.308806-5.649662 2.652404-11.231786 3.229548-13.482033 17.667346-67.502258-30.684798-126.954183-77.962474-158.981556-106.564848-72.23197-242.359356-108.213391-397.164808-107.952449-153.688004 0.254803-287.985418 36.25055-393.780741 107.952449-47.313491 32.04477-95.587864 91.456785-77.96145 158.981556 0.618076 2.309597 1.881856 7.834417 3.224431 13.500452 11.138666 47.197857 24.962482 105.805556 95.662566 91.972531l138.368117-28.537907c75.654923-14.792885 62.250662-79.408402 58.829756-131.050469-0.685614-10.298533-2.073214-18.451197-3.494584-24.980901l0.005117-0.001023z" fill="#23A3C5" p-id="2691"></path></svg>